<svg xmlns="http://www.w3.org/2000/svg" viewBox="0 0 200 200" width="100%" height="100%">
  <!-- Shield Base -->
  <path d="M100 20 L160 40 L160 110 C160 160 100 190 100 190 C100 190 40 160 40 110 L40 40 Z" fill="#4684DB" stroke="#ffffff" stroke-width="4" stroke-linejoin="round"/>
  <!-- Inner Shield -->
  <path d="M100 35 L145 50 L145 105 C145 145 100 170 100 170 C100 170 55 145 55 105 L55 50 Z" fill="#192638" stroke="#567CB1" stroke-width="2"/>
  <!-- Baseball/Softball Diamond -->
  <path d="M100 65 L125 90 L100 115 L75 90 Z" fill="none" stroke="#ffffff" stroke-width="3"/>
  <!-- Trophy / Stars -->
  <polygon points="100,75 105,85 115,85 107,92 110,102 100,95 90,102 93,92 85,85 95,85" fill="#facc15" />
  <!-- Banner -->
  <rect x="30" y="115" width="140" height="35" rx="5" fill="#ffffff" stroke="#4684DB" stroke-width="2"/>
  <text x="100" y="139" font-family="sans-serif" font-weight="900" font-style="italic" font-size="22" fill="#192638" text-anchor="middle" letter-spacing="1">TourneyTru</text>
</svg>
